<?xml version="1.0" encoding="UTF-8"?>
<svg id="Capa_2" data-name="Capa 2" xmlns="http://www.w3.org/2000/svg" viewBox="0 0 530.38 360.88">
  <defs>
    <style>
      .cls-1 {
        fill: #f9f9f9;
      }

      .cls-1, .cls-2, .cls-3, .cls-4, .cls-5, .cls-6, .cls-7, .cls-8, .cls-9, .cls-10, .cls-11, .cls-12, .cls-13, .cls-14, .cls-15, .cls-16, .cls-17, .cls-18, .cls-19, .cls-20, .cls-21, .cls-22, .cls-23, .cls-24, .cls-25, .cls-26, .cls-27, .cls-28, .cls-29, .cls-30, .cls-31, .cls-32, .cls-33, .cls-34, .cls-35, .cls-36, .cls-37, .cls-38, .cls-39, .cls-40, .cls-41, .cls-42, .cls-43, .cls-44, .cls-45, .cls-46, .cls-47, .cls-48, .cls-49 {
        stroke-width: 0px;
      }

      .cls-2 {
        fill: #360904;
      }

      .cls-3 {
        fill: #2a0802;
      }

      .cls-4 {
        fill: #2b1916;
      }

      .cls-5 {
        fill: #2e2115;
      }

      .cls-6 {
        fill: #582e0b;
      }

      .cls-7 {
        fill: #828485;
      }

      .cls-8 {
        fill: #190402;
      }

      .cls-9 {
        fill: #191a18;
      }

      .cls-10 {
        fill: #371002;
      }

      .cls-11 {
        fill: #430d03;
      }

      .cls-12 {
        fill: #230402;
      }

      .cls-13 {
        fill: #200904;
      }

      .cls-14 {
        fill: #1f0301;
      }

      .cls-15 {
        fill: #d09f5f;
      }

      .cls-16 {
        fill: #d1b08d;
      }

      .cls-17 {
        fill: #d1ac77;
      }

      .cls-18 {
        fill: #d2b08b;
      }

      .cls-19 {
        fill: #d2c9b6;
      }

      .cls-20 {
        fill: #ddb173;
      }

      .cls-21 {
        fill: #d08c34;
      }

      .cls-22 {
        fill: #c9b4a7;
      }

      .cls-23 {
        fill: #cda069;
      }

      .cls-24 {
        fill: #c68935;
      }

      .cls-25 {
        fill: #e0c292;
      }

      .cls-26 {
        fill: #d4b390;
      }

      .cls-27 {
        fill: #d69236;
      }

      .cls-28 {
        fill: #c18536;
      }

      .cls-29 {
        fill: #be8a44;
      }

      .cls-30 {
        fill: #a66f22;
      }

      .cls-31 {
        fill: #a66415;
      }

      .cls-32 {
        fill: #af6b16;
      }

      .cls-33 {
        fill: #ad6715;
      }

      .cls-34 {
        fill: #a8948b;
      }

      .cls-35 {
        fill: #a7662a;
      }

      .cls-36 {
        fill: #b97f34;
      }

      .cls-37 {
        fill: #330702;
      }

      .cls-38 {
        fill: #340903;
      }

      .cls-39 {
        fill: #9a622a;
      }

      .cls-40 {
        fill: #7e5c42;
      }

      .cls-41 {
        fill: #7f7053;
      }

      .cls-42 {
        fill: #efefef;
      }

      .cls-43 {
        fill: #e6cca6;
      }

      .cls-44 {
        fill: #fbfbfb;
      }

      .cls-45 {
        fill: #040202;
      }

      .cls-46 {
        fill: #010101;
      }

      .cls-47 {
        fill: #676867;
      }

      .cls-48 {
        fill: #676563;
      }

      .cls-49 {
        fill: #020202;
      }
    </style>
  </defs>
  <g id="Capa_1-2" data-name="Capa 1">
    <g>
      <path class="cls-45" d="M329.98,206.9c-20.36,23.05-40.7,46.13-61.12,69.13-2.31,2.6-5.09,4.77-7.57,7.23-1.37,1.36-1.94,2.75-.77,4.85,5.46,9.74,3.66,16.15-6.17,22.44-1.66,1.07-3.55,1.78-5.34,2.66-6.83.5-13.69,1.59-19.89-2.8-1.9-1.35-3.78-2.57-4.93-4.65-9.27-7.17-18.38-14.55-28.23-20.92-1-.33-2.4-.3-2.36-1.79.06-1.9,1.41-2.65,3.11-2.92,2.53-.09,4.37,1.45,6.25,2.77,9.67,6.75,19.35,13.46,28.77,20.58,7.39,5.59,14.5,5.75,21.18,1.01,1.36-.97,2.59-2.09,3.59-3.43,2.57-3.44,2.44-5.81-.65-8.74-3.43-3.24-7.49-5.43-11.96-6.96-7.7-2.65-15.33-5.55-22.14-10.13-4-2.69-7.79-5.73-8.49-11.05.56-1.79,1.64-3.04,3.56-3.4,4.33,4.96,8.7,9.69,15,12.47,10.39,4.59,10.26,4.81,16.28-4.48,2.07-3.19,4.08-6.43,6.48-9.33-1.06.6-2.08.56-2.95-.48-.52-4.66,3.71-3.4,5.86-4.74.95-.59,1.8-1.3,2.64-2.03,2.15-1.82,3.25-4.66,5.86-6.03,5.66-4.32,9.24-10.42,13.27-16.04,21.44-29.87,47.37-56.14,68.8-85.98,14.1-19.63,29.59-38.01,46.16-55.55,3.44-3.64,7.14-6.95,11.16-9.95,2.72-2.03,5.09-1.71,7.71.07,8.12,5.53,10.16,13.71,4.41,21.61-6.84,9.4-15.15,17.66-21.91,27.16-1.05,1.48-2.49,2.7-2.99,4.55-.63,2.52-2.89,3.88-4.2,5.91-5.87,11.22-16.07,19.11-22.76,29.7-8.28,7.4-14.34,16.61-20.82,25.48-.91,1.54-1.86,3.06-3.13,4.35-1.39,1.36-2.79,2.71-4.13,4.12-.76.77-1.5,1.54-2.09,2.45q-2.09,4.6-5.5,2.85Z"/>
      <path class="cls-12" d="M140.07,341.09c.04.82-.12,1.71.14,2.45,3.38,9.57.71,14.58-9.15,16.57-2.91.59-5.95.81-8.93.76-7.09-.11-12.17-3.46-14.24-10.35-3.94-13.16-10.19-25.69-10.72-39.81-.28-7.39-4.44-12.72-9.36-18.09-6.14-6.69-13.81-9.6-21.77-13.08-27.47-12-51.26-28.2-61.91-58.39-4.75-13.47-4.81-27.02-3.17-40.88,3.16-26.68,12.35-50.85,29.28-71.9,8.47-10.53,19.36-18.38,30.52-25.5,12.75-8.15,21.49-18.84,27.11-32.69,2.72-6.71,5.59-13.38,10.64-19.02,3.46-3.87,3.22-9.66,4.37-14.6.97-4.18,3.07-5.61,6.91-5.19,4.97.54,9.87,1.51,14.31,3.91,1.93,1.05,3.76,1.92,5.94.87,6.76-.35,13.25-2.32,19.87-3.51,1.81-.33,3.59-.58,5.4-.4,9.8.95,19.5,1.23,28.55-3.65.58-.31,1.28-.29,1.94-.26,3.41,1.85,6.91,3.52,10.72,4.89.14-3.68-3.04-5.51-3.87-8.44,2.79-3.39,3.58-3.29,6.04-.23,2.84,3.53,4.54,7.24,3.44,11.84.65.91,1.3,1.81,1.95,2.72,1.42,2.85,4.87,3.62,6.44,6.43,1.09,1.96,2.14,3.65.57,5.76-3.02.29-4.15-2.45-6.14-3.81-8.4-7.98-18.24-11.3-29.96-11.2-14.2.12-28.16,1.51-42.07,4.29,1.06,1.62,2.69,3.07,3.47,5.08.62,1.61,1.09,3.36-.56,4.54-1.53,1.09-2.86-.1-3.99-1.04-2.43-2.02-4.51-4.43-7.08-6.3-3.14-2.29-6.61-3.85-10.33-4.85-3.05-.82-5.63-.29-7.15,2.81-1.69,6.08-6.28,10.82-7.87,16.94-.17,1.71-.55,3.35-1.48,4.82-4.99,8.81-8.18,18.53-13.7,27.08-1.08,1.67-1.94,3.48-3.35,4.92-2.33,2.51-5.06,4.53-7.83,6.51-10.55,7.57-21.35,14.84-30.9,23.67-11.29,10.45-19.56,23.05-25.44,37.23-7.97,19.21-11.68,39.24-10.24,59.99,1.51,21.75,12.57,38.56,28.79,52.33,3.8,3.23,7.94,6.06,11.94,9.06,7.91,3.51,15.12,8.41,23.1,11.77,4.34,1.83,5.54,1.18,5.29-3.61-.65-12.26,2.44-24.15,3.24-36.25.28-4.23,1.62-5,5.68-4.09,1.92,4.02.78,8.1.18,12.16-.45,3.11-.99,6.2-1.51,9.29-1.39,8.84-1.21,17.66.46,26.43.46,2.44,2.06,4.45,4.23,5.84,2.23,1.82,4.15,3.98,6.29,5.9,7.75,6.42,9.12,15.56,10.03,24.67.61,6.04,1.94,11.77,4.23,17.33,1.72,4.16,2.62,8.57,4.13,12.79,2.8,7.79,5.61,9.57,13.81,9.11,2.17-.12,4.25-.73,6.39-.98,2.92-.04,3.55-1.87,4.09-4.4.6-2.86-.67-6.64,3.26-8.22Z"/>
      <path class="cls-14" d="M443.03,136.09c21.78,7.21,35.36,22.71,44.73,43.03,5.21,11.29,11.92,21.88,17.72,32.91,12.58,23.89,18.54,49.77,22.61,76.2,1.32,8.56,2.93,17.1,1.99,25.82-.25,2.3-.48,4.7-1.3,6.83-1.39,3.64-3.49,6.14-8.27,4.85-18.81-5.06-38.02-2.52-57.07-2.48-27.82.06-55.54-3.16-83.38-2.33-8.32.25-16.65.29-24.97.67-3.86.17-5.22-1.09-5.03-5.09.98-20.46,1.72-40.93,2.55-61.4.03-.67.08-1.33.08-2,.02-9.65-.02-9.42-9.5-11.05-4.37-.75-8.7-2.27-12.52-4.68-5.9-3.72-7.83-12.17-4.59-19.67.71-1.65,1.81-3.12,2.73-4.67,1.94-.38,2.05,1.31,1.63,2.1-2.7,5.06-.05,9.42,1.53,13.94.37.6.69,1.22.96,1.88.48,1.4.89,2.73,2.19,3.79,4.14,3.38,5.4,3.14,7.22-1.71.18-.47.54-.8,1.17-.92,2.18.62.93,3.92,3.31,4.45,7.24,2.14,13.04-.77,18.33-5.27,8.41-7.15,15.65-15.36,21.74-24.58,1.19-1.8,2.2-3.78,3.94-5.12,2.15-1.66,3.87-.89,4.02,1.83.15,2.59-.86,4.95-2.26,7.02-8.49,12.46-18.14,23.81-31.44,31.44-2.21,1.27-2.88,2.72-2.83,5.2.41,20.11-.21,40.19-1.79,60.24-.08,1-.1,1.99-.18,2.99-.3,3.55.82,4.83,4.81,4.68,17.26-.67,34.54-.81,51.8.14,1.44.45,2.92.55,4.43.62,26.1,1.21,52.23.99,78.34.91,6.53-.02,12.93.5,19.32,1.89,7.81,1.7,8.62,1.11,8.41-6.68-.54-19.87-3.61-39.37-8.77-58.59-5.32-19.78-13.81-38.13-24.22-55.67-4.76-8.02-8.91-16.38-13.06-24.72-6.12-12.29-15.52-21.03-27.27-27.6-1.02-.57-2.05-1.12-2.98-1.82-.64-.47-1.24-1-1.82-1.54-1.25-1.33-3.09-2.09-4-3.72-.99-1.75-1.11-3.16,1.66-2.12Z"/>
      <path class="cls-46" d="M307.17,129.12c5.06,5.58,9.69,10.24,15.07,14.15,2,1.45,3.85,3.14,5.61,4.88,1.52,1.51,3.03,3.01.83,5.4-1.98,2.16-4.03,3.21-6.44,1.36-10.02-7.68-20.14-15.28-27.11-26.12-1.96-3.04-3.07-6.44-.88-9.82,2.07-3.18,5.51-2.59,8.64-2.46,6.26.26,11.98,2.36,17.4,5.39,3.29,1.83,6.54,3.76,11.06,4.65-.98-3.56-3.1-5.58-5.11-7.55-5.47-5.34-10.96-10.68-16.66-15.77-2.51-2.25-3.52-4.36-1.4-7.23,2.18-2.94,4.96-2.7,7.39-.66,9.57,8.02,18.83,16.41,25.48,27.13,3.52,5.68,2.94,8.98-.95,12.94-1.53,1.56-3.15,2.06-5.32,1.96-5.63-.27-10.66-2.38-15.64-4.69-3.46-1.6-6.91-3.19-11.99-3.56Z"/>
      <path class="cls-8" d="M210.99,31.22c.3-4.06-1.92-6.72-4.87-9.06-.95-.75-3.13-.87-2.04-3.05,13.94,8.76,19.97,22.16,22.07,37.81.77,5.77,1.1,11.59,1.89,17.35.56,4.1,2.15,7.63,6.66,9.02,11.91,3.67,14.23,14.03,13.98,23.17-.25,9.18-5.69,15.52-17.15,17.81-9.31,1.86-15.19,6.48-18.66,14.9-.83,3.27-.03,6.61-.42,9.88-.33,2.77,1.03,5.54-2.35,8.24-1.87,1.49-1.25,6.53-1.76,9.98-3.63,15.74-8.94,30.96-14.6,46.05-4.32,11.51-9.01,22.86-14.17,34.03-2.22,1.71-3.59,4.15-5.35,6.25-1.52,1.81-3.54,3.19-3.96-.93,2.3-6.62,5.87-12.66,8.56-19.11,11.07-26.46,21.22-53.21,26.27-81.59.99-5.55,1-11.29,3.35-16.57.94-2.1.39-3.08-2.06-3.01-10.57.3-19.18-4.77-27.64-10.21-.56-.36-1.11-.75-1.59-1.2-1.59-1.5-3.61-3.29-2.22-5.49,1.55-2.45,3.91-.87,5.73.2,2.73,1.6,5.67,2.84,8.32,4.56,6.36,4.14,13.24,6.13,20.84,5.48,1.16,0,2.52.4,3.44-.14,7.05-4.13,15.38-3.38,22.78-6.15,5.96-2.24,9-6.55,9.43-12.76.39-5.65-2.23-8.52-7.89-9.27-2.04-.27-4.88.99-5.73-2.35,2.15-1.96,4.9-.89,7.31-1.45.84-.41.82-.97.24-1.62-3.72-2.18-7.94-3.43-11.14-6.49-2.81-2.69-4.96-5.78-6.08-9.53-.48-5.19-2.12-9.62-7.61-11.5-1.35-1.43-1.96-2.92-.37-4.58,4.46-1.18,4.52-1.49,1.24-5.9,3.99-6.84.61-12.6-2.65-18.4-.77-1.38-2.36-2.44-1.81-4.38Z"/>
      <path class="cls-46" d="M294.98,190.48c-1.35,8.18-6.89,15.04-13.75,21.05-1.43,1.25-2.45-.28-3.35-1.11-9.41-8.68-18.72-17.47-28.18-26.1-4.07-3.71-4.29-7.53-1.11-11.79,1.19-1.6,2.29-3.28,3.61-4.77,7.29-8.21,18.4-6.49,22.94,3.6,1.16,2.58,2.67,3.88,5.65,3.84,7.89-.11,14.14,6.19,14.2,15.28Z"/>
      <path class="cls-49" d="M323.55,80.12c3.24.62,5.69,2.48,7.74,4.99,1.04,1.28,2.07,2.61,3.31,3.67.65.56,1.59,1.47,2.64.84,1.02-.62.69-1.75.59-2.72-.61-5.77-1.15-11.54-1.88-17.3-.39-3.12.53-5.39,3.7-5.95,3.17-.56,4.17,1.91,4.97,4.37,1.51,4.61,2.18,9.4,2.26,14.18.05,3.36.95,4.62,4.29,3.76,8.52-2.2,15.48,1.74,22.4,5.76,1.16.68,1.98,1.67,2.69,2.85,1.52,2.49,1.31,4.55-.76,6.66-2.06,2.1-3.78,1.79-5.99.12-5.52-4.19-11.58-6.52-18.57-4.06-1.52.53-3.47,1.01-3.83,2.83-.4,2,1.59,2.78,2.88,3.62,3.1,2.01,5.88,4.38,8.21,7.2,1.71,2.07,4.95,3.75,1.59,7.38-3.13,3.38-5.28,2.33-8.29-.04-5.51-4.36-10.21-9.5-15.17-14.4-5.2-5.14-10.47-10.21-15.6-15.41-1.7-1.73-2.63-3.93-1.41-6.35.83-1.65,2.35-2.27,4.23-1.99Z"/>
      <path class="cls-37" d="M171.04,253.16c2.03,2.88,2.38-.34,2.84-1.02,1.42-2.1,2.06-4.87,5.29-5.06,1.8.78,1.95,2.58,2.48,4.11,3.39,9.81,7.58,19.19,14.63,27.02.67.75,1.18,1.62,1.05,2.7-2.69.53-4.27,1.44-1.35,3.91-16.39,7.26-34.06,6.03-51.3,7.68-3.15.3-6.32.36-9.46.64-6.62.59-6.54.61-5.65,7.51,1.13,8.8,3.56,17.24,6.42,25.6,1.66,4.84,3.77,9.59,4.09,14.82-1.38,2.81-1.98,5.8-2.02,8.9-.04,3.44-1.59,5.24-5.15,5.03,3.26-4.94,2.05-9.89.51-15.1-2.34-7.96-5.27-15.73-7.38-23.76-2.38-9.05-3.59-18.22-3.38-27.55.11-4.68-.72-9.25-1.04-13.87-.14-11.15.55-22.22,2.72-33.17.57-2.88.92-6.07,4.6-6.98,4.1,1.1,3.67,4.4,3.05,7.25-2.81,12.93-2.56,26.02-2.46,39.11.05,6.28.39,6.54,6.55,5.6,2.62-.4,5.21-1.02,7.89-.94,9.27.55,18.4-1.43,27.62-1.46,5.12-.41,10.22-1.1,15.27-2.08,1.87-.36,4.1-1.05,2.11-3.51-5.67-7.03-9.39-15.13-13.1-23.85-3.21,3.87-4.73,8.09-6.9,11.9-1.33,2.45-2.76,4.86-5.02,6.57-2.56,1.94-3.86,1.11-3.86-2.02,2.01-6.01,5.9-11.08,8.59-16.75.4-.84,1.1-1.72,2.35-1.24Z"/>
      <path class="cls-49" d="M307.21,178.17c-14.76-1.33-26.29-7.46-33.45-20.46-2.98-5.42-2.49-11.1,1.18-15.89,3.41-4.45,8.98-6.02,13.92-4.29,13.48,4.72,24.19,12.92,28.3,27.46,2.07,7.34-2.64,13.15-9.96,13.18Z"/>
      <path class="cls-38" d="M207.1,167.27c-.04-3.74,1.5-7.26,1.09-11.15-.41-3.87,2.02-1.64,3.4-.44,1.26-5.82-.9-11.32,1.28-16.5.54,16.96,1.12,33.91,1.59,50.87.35,12.82.68,25.63.74,38.45.02,3.25,1.04,4.66,4.17,5.52,13.47,3.68,26.83,7.79,40.71,9.8,2.04.3,3.94,1.54,5.91,2.35-1.09,2.68-3.14,4.69-4.89,6.91-1.81-2.88-4.48-4-7.8-4.57-10.46-1.8-20.79-4.16-30.95-7.31-1.77-.55-4.4-3.15-5.73.55-1.25,3.5.99,8.19,4.02,8.93,2.74.66,5.54.94,8.38,1.01,9.11.23,18.15,1.46,27.23,2.15,1,.08,1.97.33,2.66,1.15-1.56,2.63-6.74-.75-6.91,4.18-7.07,2.78-14.31,1.14-21.51.87-4.53-.17-9.2-1.94-13.48,1.08-1.04,1.05-2.09,2.1-3.13,3.15-2.26-.34-2.73-2.21-3.23-3.94-.74-2.56-1.14-5.18-1.17-7.85-.23-19.72-1.77-39.43-.98-59.17.33-8.3-1.67-16.5-.7-24.79.06-.51-.4-.88-.72-1.26Z"/>
      <path class="cls-4" d="M345.09,238.03c-2.08-1.09-.5-3.4-1.59-4.89-.19.26-.4.45-.47.67-.55,1.92,1.13,4.45-1.24,5.78-1.25.7-8.63-4.57-9.36-6.41-.24-.6-.34-1.26-.51-1.9,1.02-1.3.6-2.82.74-5.3-.67,2.04-.64,3.36-1.7,4.12-1.68-2.17-.51-5.67-3.7-7.32-.92-.47.28-2.36.64-3.6.57-1.99,2.77-3.79.93-6.15-.39-2.19,3.21-3.63,1.14-6.13,1.49-.56,1.82-.4,2.66,1.38.48-1.96.64-3.94,2.27-5.27,2.27.96,1.84-.81,2-1.98,1.33-1.31,2.67-2.63,4-3.94.96,2.28,1.09,5.02,3.62,6.42.54.51,1.03,1.06,1.47,1.66.63.9,1.03,1.9,1.25,2.97,2.17,10.17.5,20.07-2.16,29.89Z"/>
      <path class="cls-2" d="M443.03,136.09c-1.23.16-1.91.54-.8,1.79,1.1,1.23,3.04,1.45,3.75,3.14-1.93,1.56-3.81.36-5.64-.18-4.14-1.22-8.29-2.32-12.64-2.46-5.93-1.24-11.87-1.04-17.8,0-14.59,1.1-26.25,7.25-34.08,19.91-.96,1.55-1.88,3.12-3.1,4.5-2.39,1.81-3.09,6.68-7.79,4.32,4.51-8.4,11.78-14.6,17.62-21.95,2.05-2.58,2.31-6.32,5.49-8.06,3.37-2.14,6.93-3.77,11.02-3.89,12.88-2.62,25.72-3.17,38.51.62,1.91.57,3.84,1.04,5.46,2.27Z"/>
      <path class="cls-8" d="M187.38,9.27c-.98.09-2.14-.14-2.9.32-9.26,5.54-19.19,5.12-29.38,3.84-5.11-.64-10.01,1.98-15.1,2.15-3.33.11-6.52,2.75-9.95.58,10.85-3.23,21.91-6.22,33.21-5.83,9.94.34,18.29-2.34,26.08-8.07,2.73-2.01,5.64-3.69,8.84-.38,4.35,4.5,6.07,10.42,3.96,14.52-.28-4.25-1.49-7.88-4.27-11.47-2.62-3.39-3.36-1.42-4.84.33-1.11,2.43-3.05,3.68-5.64,4.02Z"/>
      <path class="cls-19" d="M224.21,305.76c7.24,5.91,15.4,8.77,24.82,7.45-8.57,2.79-16.47,1.77-23.63-3.99-1.27-1.02-1.29-2.14-1.19-3.46Z"/>
      <path class="cls-22" d="M399.06,133.2c-3.89.67-6.84,4.03-11.02,3.89,1.96-1.29,1.87-4.43,4.57-5.04,2.15.38,4.3.77,6.44,1.15Z"/>
      <path class="cls-16" d="M207.1,167.27c1.89-2.4,1.99-.94,2.03.91.26,10.46.57,20.93.82,31.39.43,18.27.79,36.54,1.29,54.81.1,3.45.27,7.01,2.66,9.91,1.77,4.52,5.04,7.77,9.01,10.31,6.19,3.97,12.94,6.86,19.92,9.04,4.52,1.41,8.63,3.49,12.45,6.13,5.93,4.12,6.02,9.78.44,14.36-8.27,6.78-16.82,6.75-25.87-.28-10.49-8.16-21.26-15.89-32.54-22.93-9.7-9.32-14.51-21.27-18.16-33.84,1.39-6.76,4.93-12.68,7.41-19.02,7.79-19.95,15.38-39.97,20.53-60.8Z"/>
      <path class="cls-7" d="M322.08,208.22c-19.05,21.14-38.08,42.29-57.14,63.42-2.88,3.19-5.75,6.4-8.81,9.41-1.7,1.68-4.41,2.42-6.24,1.18-2.49-1.69-.29-4.07.72-5.68,6.75-10.69,13.89-21.08,22.33-30.58,13.72-15.43,24.94-32.86,38.14-48.7,11.82-14.18,25.27-27.05,35.63-42.37,15.83-23.39,34.14-44.62,53.77-64.81,1.04-1.07,2.02-2.29,3.26-3.08,2.28-1.45,3.68-5.43,7.42-3.15,3.24,1.97,4.46,7.35,2.82,11.27-2.24.44-1.34-1.86-2.95-3.04-14.42,17.07-27.46,35.41-42.31,52.25,3.57-2.73,5.35-6.88,8.08-10.29,5.31-6.65,12.16-11.79,17.5-18.36,2.29-2.82,4.79-5.47,6.32-8.91,1.17-2.63,1.91-2.48,4.27.18-21.45,30.86-47.52,58.07-69.73,88.33-.98,1.33-2.19,2.48-3.29,3.72-3.21-1.53-.78-3.39,0-4.68,5.16-8.53,10.62-16.9,16.81-24.72,4.54-5.73,9.21-11.36,13.53-17.27-6.87,7.7-13.07,15.95-19.43,24.06-6.55,8.36-12.42,17.24-19.25,25.4-1.63,1.94-3.01,3.82-1.44,6.42Z"/>
      <path class="cls-29" d="M258.94,255c-13.28-.52-26.53-1.57-39.75-2.89-3.39-.34-3.46-2.44-3.61-4.77-.2-2.98-1.49-6.88-.11-8.74,1.97-2.66,5.08.81,7.63,1.5,11.23,3.06,22.55,5.74,33.98,7.83,3.57.65,4.48,2.02,4.04,5.15-.73.64-1.45,1.28-2.18,1.92Z"/>
      <path class="cls-47" d="M404.88,106.96c-1.32-.8-2.38-3.24-3.39.72-1.19,4.65-5.13,8.08-8.39,11.36-7.58,7.62-15.65,14.72-21.56,23.87-1.17,1.82-2.8,3.64-5.71,4.03,3.16-4.19,5.97-8.7,9.53-12.51,10.44-11.15,19-23.74,28.22-35.82,2.03-2.65,5.15-4.13,6.71-7.19.43-.84,1.33-2.28,2.72-1.49,1.38.79.44,2.03.15,3.11-.24.88-.04,1.63.83,2.1-2.16,4.61-5.36,8.43-9.1,11.82Z"/>
      <path class="cls-48" d="M322.08,208.22c-3.36-1.82-2.36-3.85-.51-6.22,10.86-13.95,21.62-27.98,32.48-41.94,2.54-3.26,5.3-6.35,8.03-9.46.59-.67,1.42-1.78,2.43-.71.83.89.12,1.85-.52,2.64-5.58,6.94-11.42,13.7-16.67,20.88-5.45,7.45-10.34,15.3-15.45,22.99-.52.79-1.17,1.73-.02,2.6-2.48,3.9-6.43,6.23-9.77,9.21Z"/>
      <path class="cls-10" d="M364.94,167.1c4.08.78,4.46-3.68,7.08-4.98,1.47,4.3-2.36,6.05-4.21,8.75-5.23,5.31-9.58,11.42-14.81,16.71-2.47,2.49-4.34,6.49-9.04,5.52,6-9.47,12.15-18.82,20.98-25.99Z"/>
      <path class="cls-6" d="M343.95,193.09c6.23-2.5,9.57-8.18,13.88-12.76,3.13-3.33,6.09-6.81,9.13-10.22,1.41,3.19-1.22,4.86-2.72,6.83-4.95,6.48-10.4,12.55-15.27,19.1-1.9,2.56-2.4,5.88-4.9,8.01-3.31-1.3-4.67-3.48-3.16-6.96,1.01-1.33,2.03-2.66,3.04-3.99Z"/>
      <path class="cls-6" d="M336.91,201.02c1.36,1.48,1.98,3.45.12,4.45-1.45.78-1.85-1.21-2.11-2.47.67-.66,1.33-1.32,2-1.98Z"/>
      <path class="cls-27" d="M129.13,234.96c-2.5.9-2.5,3.22-3,5.27-2.78,11.48-2.58,23.22-3,34.9-3.97-.05-3.74-3.65-4.81-5.97-1.26-2.73-2.48-5.12-5.95-5.05-3.27.06-5.77.92-6.28,4.84-.66,5-3.4,9.6-1.7,15.07.96,3.1-2.33,4.93-5.65,3.08-2.84-1.59-5.49-2.47-8.84-2.36-3.84.13-6.78-2.23-7.24-6.16-1.01-8.54-1.77-17.12-.72-25.74.13-7.33,2.91-14.41,2.13-21.83-2.61-1.23-3.82.41-5.24,2.26-4.2,5.44-7.21,11.57-10.23,17.66-3.3,6.63-8.96,10.56-14.9,14.24-2.6,1.61-5.04-.39-7.49-1.14-18.01-11.59-31.8-26.65-38.49-47.38-4.46-13.82-3.58-27.93-1.38-41.99,4.11-26.26,13.71-50.02,33.03-68.94,10.11-9.9,21.64-18.11,33.5-25.82,3.78-1.49,5.73,1.06,7.12,3.71,1.52,2.91,3.17,5.82,4.07,9.04-1.68-6.15-6.81-11.57-4.08-18.68,5.63-8.12,9.61-17.11,13.75-26.01.95-2.05,2.11-4.01,3.17-6.01,2.43-.24,3.23,1.97,4.73,3.14,1.87,3.42,3.03,7.31,7.03,10.53-5.78-11.71-6.39-22.97-2.64-34.48,1.78-5.49,3.31-6.29,8.71-4.69,6.88,2.05,12.7,5.66,17.26,11.3.84,1.04,1.96,2.94,3.57,1.65,1.43-1.15.36-2.8-.56-3.99-1.72-2.23-3.55-4.38-5.53-6.8,9.1,1.1,17.46-2.36,26.2-3.02,9.49-.71,18.97-1.29,28.42-.23,8.75.98,16.04,5.12,21.88,11.74,1.66,2.52,4.05,4.39,6.02,6.63,1.61,1.83,2.09,4.09,2.58,6.39.66,3.08-1.52,3.55-3.59,4.32-1.01.37-1.41,1.39-1.56,2.41-1.17,7.72-.69,14.98,5.85,20.49,2.71,2.85,6.53,4.71,7.9,8.78,2.81,6.25,7.24,10.74,13.77,13.15,1.44.53,3.18,1.02,3.94,2.72-2.43,3.24-6-.07-8.23,1.46-1.14.16-.26,1.17-.52.56-.04-.09.06-.14.27-.2,2.87-.78,5.69-.81,8.43.53-2.8,1.42-5.85.12-8.71.83-2.45,2.12-5.72,2.43-8.47,3.89-2.4.34-3.27,3.58-6.05,3.2-9.56-3.9-17.54-10.07-24.91-17.15-2.62-2.52-4.33-5.45-4.88-9.05-.13-.82-.39-1.63-.48-2.45-2.46-21.86-26.26-24.07-38.18-12.8-16.18,15.28-19.49,32.44-12.55,53.9.31.94,1.04,1.7,1.48,2.6,3.54,5.53,3.67,11.06.67,16.97-4.96,9.77-9.7,19.64-12.14,30.45-4.78,21.16-5.4,42.08,2.75,62.66.97,2.45,1.82,5.08-.18,7.55Z"/>
      <path class="cls-24" d="M81.94,252.85c0,8.12.3,16.22,1.1,24.31.49,4.9,4.91,8.07,9.32,5.89,2.84-1.4,3.47.74,4.92,1.77,1.6,1.14,3.2,2.91,5.29,1.78,2.54-1.37.36-3.14-.1-4.7-.64-2.15-.58-4.19.29-6.3.81-1.98,2.04-4.14,1.86-6.11-.57-6.44,3.97-6.86,8.15-7.04,3.98-.18,5.77,2.61,6.84,6.4.61,2.17.82,5.06,3.5,6.28,1.34,13.06.25,26.37,3.88,39.18,2.95,10.41,6.13,20.75,9.32,31.08,1.29,4.17.76,7.5-3.43,9.63-.49.07-.99.11-1.48.21-13.99,2.77-17.09.44-21.43-12.93-3.7-11.41-7.25-22.75-8.44-34.75-.65-6.56-4.21-11.75-8.69-16.37-1.06-2.36-2.82-3.99-5.2-4.98-3.71-2.15-5.38-5.31-5.93-9.65-1-7.95-1.36-15.81.2-23.7Z"/>
      <path class="cls-32" d="M46.2,264.04c2.31-.66,4.66,2,6.72.39,4.87-3.82,10.74-6.54,13.76-12.51,3.12-6.18,5.86-12.63,10.28-18.02,1.66-2.03,3.25-5.66,7.11-2.88-2.69-.27-3.89.82-4,3.64-.54,13.39-3.94,26.56-2.85,40.09.42,5.16-3.12,3.46-5.68,2.55-6.88-2.46-12.87-6.71-19.36-9.96-2.01-1-4.59-1.15-5.98-3.3Z"/>
      <path class="cls-20" d="M214.94,68.22c-4.18-1.86-5.94-5.79-6.69-9.68-.65-3.39-1.44-6.99-.37-10.69.77-2.68.17-5.85,4.64-5.16,1.64.25.8-1.14.82-2.05.11-4.23-2.62-6.88-5.02-9.81-.92-1.12-3.18-1.49-2.4-3.73,1.69,1.37,3.37,2.74,5.06,4.11,1.72,2.59,3.53,5.14,5.15,7.79,3.08,5.03,4.02,10.12-.08,15.14-.48,1.95.96,4.25-1.09,5.9-1.71,1.43-.63,2.7.22,3.99-.46,1.37.59,2.82-.24,4.17Z"/>
      <path class="cls-11" d="M105.99,21.16c-.47,5.42-1.51,10.78-1,16.29.58,6.14,1.22,12.18,5.14,17.32.62.81,1.87,1.96.57,2.98-1.03.82-2.29-.1-3.1-.8-3.59-3.11-5.68-7.14-6.71-11.74-1.86-2.29-.95-5.55-2.73-7.87,1.52-5.92,5.98-10.42,7.82-16.18Z"/>
      <path class="cls-33" d="M79.96,73.99c.52,5.42,1.41,10.7,4.19,15.55,1.18,2.06,2.22,4.39,1.39,7.77-3.16-4.06-3.82-8.54-5.99-12.26-1.57-2.7-3.27-4.97-6.7-5.12,2.37-1.98,4.73-3.96,7.1-5.93Z"/>
      <path class="cls-23" d="M187.38,9.27c1.88-1.34,3.76-2.68,5.64-4.02,4.22,1.71,4.33,5.76,5.81,9.87-4.01-1.38-7.41-2.52-10.77-3.73-.99-.36-.84-1.28-.68-2.11Z"/>
      <path class="cls-35" d="M98.16,37.34c3.52,1.72,2.5,5.01,2.73,7.87-2.24.03-2.59-2.28-4.02-3.25.95-1.4,1.24-2.98,1.29-4.62Z"/>
      <path class="cls-27" d="M87.67,286.2c2.92.42,5.11,1.61,5.2,4.98-1.73-1.66-3.47-3.32-5.2-4.98Z"/>
      <path class="cls-21" d="M408.97,137.17c6.33-1.14,12.67-1.84,19.02-.11,3.32.21,4.39,3.07,6.11,5.16,3.27,3.12,7.67,4.65,10.94,7.75,1.81,1.71,3.71,3.35,5.1,5.43,2.42,3.6,1.47,5.96-2.8,6.74-2.95.54-5.96.18-8.94.26-1.96.05-3.95-.15-5.82,1.31,5.08,1.41,10.27,1.69,15.41.42,7.63-1.89,7.95-3.13,3.14-9.26-2.87-3.65-6.85-6.29-9.35-10.28.31-3.8,3.92-.78,5.23-2.53,11.51,5.97,22.3,13.06,28.59,24.77,18.42,34.35,39.72,67.53,45.37,107.3,1.85,13,4.28,25.95,4.2,39.15-.05,7.84-.87,8.61-8.36,6.86-13.65-3.19-27.47-2.29-41.24-2.07-19.98.32-39.92-.57-59.87-1.12-.95-.03-1.89-.46-2.84-.7.63-.93,1.57-1.11,2.6-1.2.12-.01,1.34,1.28.87-.65-4.76-19.47,1.43-37.04,9.47-54.36,5.7-12.28,10.65-24.88,9.63-38.82-.85-11.74-4.28-22.87-9.1-33.55-3.01-6.66-5.9-13.41-10.08-19.48-3.4-6.17-8.26-10.56-15.02-12.89-4.45-1.53-8.02-.87-11.04,2.9-1.84,2.3-3.82,4.68-7.36,4.01-1.16-2.4.65-3.65,2.03-4.99,1.29-1.25,3.44-1.99,3.91-3.68,2.26-8.15,9.35-11.01,15.6-14.83,1.43-.81,3.28-.39,4.6-1.54Z"/>
      <path class="cls-18" d="M416.96,167.11c11.08,17.82,19.45,36.67,19.89,58.04.27,13.09-4.94,24.94-10.26,36.61-5.8,12.72-10.98,25.6-10.58,39.93.1,3.47.33,6.99,1.03,10.38.82,3.96-1.19,4.41-4.19,4.19-17.95-.79-35.91-1.15-53.84.45-3.49.31-4.2-.7-4.04-4.01.93-19.77,1.62-39.56,2.46-59.33.15-3.64-1.59-7.65-.66-10.57.83-2.62,6.1-2.45,8.76-4.85,9.51-8.57,19.2-16.97,25.84-28.16,2.29-3.86,2.47-4.9,2-8.22-2.28.47-2.97,2.48-4.01,4.1-6.6,10.28-14.45,19.45-23.84,27.3-6.02,5.03-12.75,6.89-20.44,5.08-.8-2.3-.11-4.55.23-6.81,1.22-7.99,1.83-16,.79-24.06.34-.38.76-.63,1.25-.75,7.88-.53,12.88-5.8,17.59-11.17,6.94-7.91,11.85-17.29,17.72-25.97,2.92-4.31,7.25-7.2,10.78-10.89,2.39-2.5,12.67-1.19,16.12,1.33,2.84,2.08,5.3,4.56,7.38,7.39Z"/>
      <path class="cls-39" d="M447.02,142.07c-.4,3.83-3.91.11-5.07,2.08-3.16,1.07-5.73-2.97-8.98-1.03-2.16-1.61-1.74-5.33-4.97-6.05,6.31-.08,12.02,2.54,17.99,3.96.35.35.69.7,1.04,1.05Z"/>
      <path class="cls-34" d="M330.97,230.1c.04-.5,0-1.01.12-1.48.41-1.66-1-3.9,1.16-4.92,1.13-.53,1.8.89,1.66,1.8-.31,2.01,2.47,5.19-1.98,5.78-.32-.39-.64-.79-.97-1.18Z"/>
      <path class="cls-26" d="M129.13,234.96c.19-7.82-4.03-14.54-5.57-22-3.23-15.63-1.98-30.9,1.16-46.2,2.07-10.09,5.41-19.75,10.77-28.66,4-6.65,5.72-13.62,1.49-20.92-3.75-12.44-3.81-24.86.52-37.15,1.57-4.46,4.65-8.12,8-11.33,2.86-2.73,6.34-2.5,9.61-.28,7.13,6.86,12.79,6.84,22.84-.56,1.44-1.06,2.44-2.74,4.38-3.09,2.8.65,2.57,3.04,3.05,5.11,1.41,6.08,1.96,12.57,7.16,17.04,6.71,5.77,12.78,12.65,22.37,13.63,1.55.16,2.41.79,3.06,2.01,3.2,1.82.22,6.13,3.24,8.02,1.66,2.11,3.78,3.74,5.7,5.57,2.09,1.98,2.6,4.44-.75,5.25-5.6,1.36-10.27,5.2-16.13,5.7-7.08,1-13.49-.97-19.56-4.44-3.75-2.14-7.51-4.26-11.28-6.37-1.12-.62-2.44-1.84-3.56-.54-1.09,1.26.02,2.7,1.03,3.41,9.32,6.6,19.01,12.7,31,11.87,4.6-.32,4.01,1.07,2.55,3.85-1.24,2.38-2.18,4.85-2.53,7.53-4.92,38.28-18.95,73.56-35.55,107.99-.43.89-.74,1.83-1.1,2.75-3.37,6.01-6.73,12.02-10.1,18.03.08,3.66-1.49,6.94-2.31,10.4-.91,3.85-3.1,5.01-6.69,5.03-2.6.01-5.26-.58-7.81.42-4.26.61-8.54,1.16-12.79,1.84-2.34.38-3.3-.38-3.33-2.83-.17-15.09-.85-30.2,2.69-45.06.56-2.34,1.15-4.6-1.58-6.04Z"/>
      <path class="cls-5" d="M210.05,127.11c5.11-2.08,10.18-4.26,15.35-6.19,2.94-1.1,3.52-2.24.65-4.07-2.39-1.53-4.28-3.55-5.96-5.8-1.66-2.61-.78-5.03,1.29-6.59,2.41-1.82,2.64-3.76,1.72-6.25,2.77-1.66,5.59-3.15,8.96-3.02,1.66,1.69,3.76.87,5.66.91,4.65.1,7.68,1.93,8.71,6.77,1.67,7.81-1.72,14.81-9.23,17.5-3.57,1.28-6.97,3.34-11.27,2.57-2.4-.43-5.16.37-7.44,2.12-2.43,1.86-5.38,2.41-8.46,2.05Z"/>
      <path class="cls-43" d="M214.94,68.22c.23-1.38-4.03-3.03.24-4.17,6.59,1.82,7.76,3.6,7.95,12.08-2.73-2.64-5.46-5.27-8.19-7.91Z"/>
      <path class="cls-40" d="M214.97,60.06c-.03-2.04-.9-4.24,1.09-5.9.36,1.62,3.69-.77,3.04,2.28-.33,1.56.43,3.45-.86,4.66-1.37,1.29-2.16-.69-3.27-1.04Z"/>
      <path class="cls-25" d="M240.79,94.35h-10.44c3.68-2.83,7.38-.97,10.49-2.34,1.2.81,2.26,1.61-.05,2.34Z"/>
      <path class="cls-1" d="M284.94,189.65c.06,3.05-3.03,7.84-5.43,7.58-3.17-.34-4.81-2.97-4.59-5.6.29-3.39,3.04-5.31,6.44-5.8,2.52-.37,3.74.85,3.57,3.82Z"/>
      <path class="cls-42" d="M266.89,180c-.06,1.45-.19,3.63-2.32,4.47-1.41.55-5.96-5.19-5.97-7.4-.01-2.25.77-3.89,3.46-3.81,3.1.09,4.76,2.17,4.83,6.74Z"/>
      <path class="cls-31" d="M168.15,266.09c1.93-3.83,3.8-7.68,5.81-11.47,1.17-2.21,2.78-2.52,3.68.05,3.08,8.81,7.1,17.04,13.31,24.13,1.88,2.15.94,3.85-1.67,4.2-5.41.72-10.72,2.22-16.23,2.17,2.73-4.13,2-8.68,1.49-13.16-.42-3.68-2.12-6.25-6.38-5.91Z"/>
      <path class="cls-28" d="M168.15,266.09c2.66-2.82,4.82-1.48,6.24,1.14,2.54,4.71,1.61,9.95,1.68,15.01.03,1.99-2.4,1.54-3.02,2.92-9.57,1.64-19.26,1.56-28.91,1.88,2.68-1.8,5.72-.68,8.58-1.03,2.5-.31,4.27-.9,4.34-4.07.08-3.93,3.21-6.93,3.9-10.74-.11,2.51.79,3.26,2.58,1.2,1.7-1.96,3.09-4.19,4.62-6.3Z"/>
      <path class="cls-44" d="M305.7,167.61c-10.67-.83-18.36-5.7-23.05-15.17-.72-1.44-1.39-2.85-.19-4.1,1.06-1.1,2.66-1.45,4.17-.92,9.33,3.25,16.13,9.58,21.13,17.88,1.48,2.45-.34,2.72-2.06,2.3Z"/>
      <path class="cls-8" d="M212.72,160.06v12.97c-.21,0-.42,0-.63.01v-12.92c.21-.02.42-.04.63-.06Z"/>
      <path class="cls-36" d="M346.97,206.99c-.28.09-.56.15-.85.17-.34-.74-.69-1.48-1.03-2.23,4.39-5.25,8.62-10.58,12.56-16.23,5.24-7.51,9.92-15.27,14.18-23.31,1.66-3.13,3.56-5.89,6.31-8.2,2.41-2.02,3.96-4.88,5.87-7.38,5.25-6.89,12.44-10.2,21.02-10.6-1.22,2.22-3.68,2.73-5.62,3.84-4.13,2.35-7.73,4.83-8.63,10.01-.34,1.97-2.3,3.07-3.98,4.18-1.78,1.17-3.62,2.39-3.8,4.85.88,2.28-.74,3.8-1.82,5.36-5.29,7.63-9.42,16.18-15.54,23.07-5.46,6.14-10.16,13.6-18.66,16.47Z"/>
      <path class="cls-30" d="M405.03,139.22c-6.25.35-10.94,4.48-16.34,6.85-3.07,1.35-3.24,5.36-5.61,7.38-9.06,7.7-12.84,18.85-19.01,28.44-4.76,7.41-10.22,14.38-15.52,21.43-.67.9-2.28,1.09-3.45,1.61-.34-.3-.68-.6-1.01-.89,1.01-6.76,5.84-11.25,9.74-16.27,3.63-4.67,7.5-9.16,11.17-13.8.88-1.12,2.09-2.19,1.98-3.87,2.01-2.46,4.59-4.55,5.05-7.99,4.25-6.64,8.25-13.48,15.27-17.75,6.69-4.06,13.77-6.89,21.69-7.19-.73,1.81-2.26,2.08-3.95,2.04Z"/>
      <path class="cls-17" d="M218.02,103.13c-3.36-3.23-8.07-2.2-12.01-3.71-2.1-.8-3.95-1.34-5.09-3.45-2.44-4.51-7.64-5.89-10.96-9.81-4.27-5.03-4.15-10.83-5.85-16.3-.52-1.67.11-3.71-1.97-4.71-10.17-8.14-17.51-7.12-25.84,3.6-.41.53-.87,1-1.39,1.41-3.83-3.2-6.7-2.57-9.94.92-11.08,11.93-9.29,26.41-8.46,40.7.1,1.77.51,3.57.47,5.39-4.71-5.05-4.12-11.64-4.85-17.71-1.75-14.67,4.14-26.81,13.6-37.49,7.86-8.87,22.51-11.87,32.23-6.58,5.17,2.82,9.11,7.66,9.44,13.14.86,14.26,11.15,20.46,20.93,27.59,3.15,2.3,7.29,2.77,9.86,5.9.21.41.13.77-.19,1.09Z"/>
      <path class="cls-41" d="M218.02,103.13c.06-.36.12-.73.18-1.09,1.47-1.5,2.13-4.03,4.91-3.83,3.97,2.56,3.97,3.49.06,6.21-2.3,1.6-3.58,3.72-3.07,6.64-3.79-1.83-.24-5.58-2.08-7.92Z"/>
      <path class="cls-15" d="M346.97,206.99c12.3-9.37,21.61-21.27,29.36-34.53,2.07-3.54,4.43-6.92,6.66-10.37,2.01-1.1,4.05-1.96,5.65-3.9,4.85-5.88,6.59-6.29,13.8-3.77,6.5,2.28,11.37,6.53,14.53,12.69-1.36-1.2-2.91-2.25-4.06-3.63-4.39-5.3-10.7-4.42-16.46-5.19-1.1-.15-2.92.69-3.47,1.62-3.31,5.68-9.44,8.78-12.56,14.81-4.01,7.77-9.03,15.07-14.74,21.74-4.18,4.88-9.01,9.15-15.45,11.08-1.32.39-2.24-.05-3.27-.56Z"/>
      <path class="cls-3" d="M432.97,143.12c.01-2.79,1.86-2.14,3.33-1.6,1.94.72,3.78,1.74,5.66,2.63,5.68,4.2,10.35,9.27,13.91,15.41,1.23,2.12,1.08,2.65-1.39,3.76-6.49,2.92-13.15,3.24-19.99,2.63-2.01-.18-5.19.06-5.07-2.71.11-2.47,3.13-1.65,4.93-1.75,4.31-.25,8.65-.06,12.95-.42,3.48-.29,4.04-1.93,1.91-4.94-4.2-5.93-10.8-8.71-16.24-13Z"/>
      <path class="cls-13" d="M396.18,165.43c-1.97-.1-3.55-.56-3.2-2.54.37-2.06,1.97-2.86,4.09-2.79,1.69.06,3.15.36,2.81,2.45-.35,2.16-2.2,2.58-3.7,2.89Z"/>
      <path class="cls-9" d="M154.92,70.17c.73-4.99,8.01-10.79,14.83-11.82,5.16-.78,9.78,1.76,12.39,6.82-2.64,3.23-5.72,5.79-9.53,7.66-6.63,3.25-12.4,2.28-17.69-2.65Z"/>
    </g>
  </g>
</svg>